<?xml version="1.0" encoding="iso-8859-1"?>
<!-- Generator: Adobe Illustrator 19.0.0, SVG Export Plug-In . SVG Version: 6.00 Build 0)  -->
<svg version="1.1" id="Layer_1" xmlns="http://www.w3.org/2000/svg" xmlns:xlink="http://www.w3.org/1999/xlink" x="0px" y="0px"
	 viewBox="0 0 503.607 503.607" style="enable-background:new 0 0 503.607 503.607;" xml:space="preserve">
<g transform="translate(0 1)">
	<path style="fill:#FD9808;" d="M302.164,494.199H159.475c-9.233,0-16.787-7.554-16.787-16.787v-33.574h176.262v33.574
		C318.951,486.645,311.397,494.199,302.164,494.199"/>
	<path style="fill:#FFFFFF;" d="M193.049,494.199H50.361c-9.233,0-16.787-7.554-16.787-16.787v-33.574h176.262v33.574
		C209.836,486.645,202.282,494.199,193.049,494.199"/>
	<path style="fill:#FFDD09;" d="M276.984,494.199H75.541c-9.233,0-16.787-7.554-16.787-16.787v-33.574H293.77v33.574
		C293.77,486.645,286.216,494.199,276.984,494.199"/>
	<path style="fill:#FD9808;" d="M327.344,443.838H293.77c-9.233,0-17.626-7.554-17.626-17.626v-15.948
		c0-9.233,7.554-17.626,17.626-17.626h33.574c9.233,0,17.626,7.554,17.626,17.626v15.948
		C344.131,436.284,336.577,443.838,327.344,443.838"/>
	<path style="fill:#FFFFFF;" d="M58.754,443.838H25.18c-9.233,0-16.787-7.554-16.787-17.626v-15.948
		c0-9.233,7.554-16.787,16.787-16.787h33.574c9.233,0,16.787,7.554,16.787,17.626v15.948
		C75.541,436.284,67.987,443.838,58.754,443.838"/>
	<g>
		<path style="fill:#FFDD09;" d="M302.164,443.838H51.2c-10.072,0-17.626-7.554-17.626-17.626v-15.948
			c0-9.233,7.554-16.787,17.626-16.787h250.964c9.233,0,17.626,7.554,17.626,17.626v15.948
			C318.951,436.284,311.397,443.838,302.164,443.838"/>
		<path style="fill:#FFDD09;" d="M293.77,343.117h-41.967c0,14.269-10.911,25.18-25.18,25.18s-25.18-10.911-25.18-25.18h-50.361
			c0,14.269-10.911,25.18-25.18,25.18s-25.18-10.911-25.18-25.18H58.754c0,14.269-10.911,26.02-25.18,25.18v25.18h285.377v-25.18
			C304.682,369.136,293.77,357.386,293.77,343.117"/>
	</g>
	<path style="fill:#1CD759;" d="M35.252,317.936c-12.59,0-23.502,8.393-26.02,20.144c-3.357,15.948,9.233,29.377,24.341,30.216
		c14.269,0.839,25.18-10.911,25.18-25.18h41.967c0,14.269,10.911,25.18,25.18,25.18s25.18-10.911,25.18-25.18h50.361
		c0,14.269,10.911,25.18,25.18,25.18s25.18-10.911,25.18-25.18h41.967c0,14.269,10.911,26.02,25.18,25.18
		c13.43-0.839,25.18-11.751,25.18-25.18c0-13.43-11.751-25.18-25.18-25.18H35.252z"/>
	<polygon style="fill:#FD9808;" points="33.574,317.936 318.951,317.936 318.951,284.363 33.574,284.363 	"/>
	<polygon style="fill:#FFDD09;" points="33.574,317.936 293.77,317.936 293.77,284.363 33.574,284.363 	"/>
	<path style="fill:#FD9808;" d="M176.262,183.641c-100.721,0-167.869,34.413-167.869,83.934v8.393c0,5.036,4.197,8.393,8.393,8.393
		h318.951c5.036,0,8.393-4.197,8.393-8.393v-8.393C344.131,218.054,276.984,183.641,176.262,183.641"/>
	<path style="fill:#FFDD09;" d="M176.262,183.641c-100.721,0-167.869,34.413-167.869,83.934v8.393c0,5.036,4.197,8.393,8.393,8.393
		h293.77c5.036,0,8.393-4.197,8.393-8.393v-8.393C318.951,218.054,276.984,183.641,176.262,183.641"/>
	<path style="fill:#FD9808;" d="M486.82,141.674H251.803c-5.036,0-8.393-3.357-8.393-8.393V99.707c0-5.036,3.357-8.393,8.393-8.393
		H486.82c5.036,0,8.393,3.357,8.393,8.393v33.574C495.213,138.317,491.856,141.674,486.82,141.674"/>
	<path style="fill:#FFDD09;" d="M461.639,141.674H251.803c-5.036,0-8.393-3.357-8.393-8.393V99.707c0-5.036,3.357-8.393,8.393-8.393
		h209.836c5.036,0,8.393,3.357,8.393,8.393v33.574C470.033,138.317,466.675,141.674,461.639,141.674"/>
	<path style="fill:#FD9808;" d="M251.803,141.674l2.518,50.361c56.236,13.43,89.81,40.289,89.81,75.541v8.393
		c0,5.036-4.197,8.393-8.393,8.393h-16.787v33.574c13.43,0,25.18,11.751,25.18,25.18c0,13.429-11.751,24.341-25.18,25.18v25.18
		h8.393c9.233,0,17.626,7.554,17.626,17.626v15.948c0,9.233-7.554,17.626-17.626,17.626h-8.393v33.574
		c0,9.233-7.554,16.787-16.787,16.787h151.921c9.233,0,15.948-6.715,16.787-15.948l15.948-337.416H251.803z"/>
	<path style="fill:#FFFFFF;" d="M176.262,183.641c-100.721,0-142.689,34.413-142.689,83.934v8.393c0,5.036,4.197,8.393,8.393,8.393
		h-25.18c-5.036,0-8.393-4.197-8.393-8.393v-8.393C8.393,218.054,75.541,183.641,176.262,183.641"/>
	<path style="fill:#FFDD09;" d="M258.518,141.674l1.679,50.361c46.164,13.43,83.934,40.289,83.934,75.541v8.393
		c0,5.036-3.357,8.393-6.715,8.393h-13.43v33.574c10.911,0,20.984,11.751,20.984,25.18c0,13.429-9.233,24.341-20.984,25.18v25.18
		h6.715c7.554,0,14.269,7.554,14.269,17.626v15.948c0,9.233-6.715,17.626-14.269,17.626h-6.715v33.574
		c0,9.233-5.875,16.787-13.429,16.787H435.62c7.554,0,13.43-6.715,13.43-15.948l12.59-337.416H258.518z"/>
	<path style="fill:#15A143;" d="M369.311,217.215c-15.108,0-28.538,5.036-40.289,13.43c9.233,10.911,15.108,23.502,15.108,36.931
		v8.393c0,5.036-4.197,8.393-8.393,8.393h-16.787v33.574c13.43,0,25.18,11.751,25.18,25.18c0,0.839,0,2.518,0,3.357
		c7.554,3.357,16.787,5.036,25.18,5.036c36.931,0,67.148-30.216,67.148-67.148S406.243,217.215,369.311,217.215"/>
	<path style="fill:#1CD759;" d="M363.436,217.215c-10.911,0-20.984,5.036-28.538,13.43c6.715,10.911,10.911,23.502,10.911,36.931
		v8.393c0,5.036-2.518,8.393-5.875,8.393h-12.59v33.574c9.233,0,17.626,11.751,17.626,25.18c0,0.839,0,2.518,0,3.357
		c5.875,3.357,11.751,5.036,18.466,5.036c26.859,0,47.843-30.216,47.843-67.148S389.456,217.215,363.436,217.215"/>
	<path d="M486.82,150.068H251.803c-9.233,0-16.787-7.554-16.787-16.787V99.707c0-9.233,7.554-16.787,16.787-16.787H486.82
		c9.233,0,16.787,7.554,16.787,16.787v33.574C503.607,142.513,496.052,150.068,486.82,150.068z M486.82,133.281v8.393V133.281
		L486.82,133.281z M251.803,99.707v33.574H486.82V99.707H251.803z"/>
	<path d="M369.311,99.707c-5.036,0-8.393-3.357-8.393-8.393V40.953c0-5.036,3.357-8.393,8.393-8.393
		c5.036,0,8.393,3.357,8.393,8.393v50.361C377.705,96.35,374.348,99.707,369.311,99.707z"/>
	<path d="M369.311,49.346c-2.518,0-5.875-1.679-7.554-4.197c-1.679-4.197-0.839-9.233,3.357-11.751l58.754-33.574
		c4.197-1.679,9.233-0.839,11.751,3.357s0.839,9.233-3.357,11.751l-58.754,33.574C371.829,49.346,370.99,49.346,369.311,49.346z"/>
	<path d="M302.164,502.592H50.361c-14.269,0-25.18-10.911-25.18-25.18v-33.574c0-5.036,3.357-8.393,8.393-8.393h285.377
		c5.036,0,8.393,3.357,8.393,8.393v33.574C327.344,491.681,316.433,502.592,302.164,502.592z M41.967,452.232v25.18
		c0,5.036,3.357,8.393,8.393,8.393h251.803c5.036,0,8.393-3.357,8.393-8.393v-25.18H41.967z"/>
	<path d="M327.344,452.232H26.02c-14.269,0-26.02-11.751-26.02-26.02v-15.948c0-13.429,11.751-25.18,26.02-25.18h301.325
		c14.269,0,26.02,11.751,26.02,26.02v15.948C352.525,440.481,340.774,452.232,327.344,452.232z M26.02,401.871
		c-5.036,0-9.233,4.197-9.233,9.233v15.948c0,4.197,4.197,8.393,9.233,8.393h301.325c5.036,0,9.233-4.197,9.233-9.233v-15.948
		c0-5.036-4.197-9.233-9.233-9.233H26.02V401.871z"/>
	<path d="M317.272,376.691c-8.393,0-15.948-3.357-21.823-8.393c-5.036-4.197-7.554-10.072-9.233-16.787h-26.859
		c-3.357,14.269-16.787,25.18-32.734,25.18s-28.538-10.911-32.734-25.18h-36.092c-3.357,14.269-16.787,25.18-32.734,25.18
		s-28.538-10.911-32.734-25.18h-26.02c-1.679,6.715-5.036,12.59-9.233,16.787c-6.715,5.875-15.108,8.393-23.502,8.393
		c-10.072-0.839-20.144-5.875-26.02-13.43c-5.875-7.554-8.393-16.787-6.715-26.02c2.518-15.948,17.626-27.698,34.413-27.698h283.698
		c17.626,0,33.574,15.948,33.574,33.574s-14.269,32.734-32.734,33.574C318.951,376.691,318.111,376.691,317.272,376.691z
		 M35.252,326.33c-8.393,0-16.787,5.875-17.626,13.43c-0.839,5.875,0.839,10.072,3.357,12.59c3.357,4.197,8.393,6.715,13.43,6.715
		c4.197,0,8.393-0.839,10.911-4.197c3.357-1.679,5.036-6.715,5.036-11.751c0-5.036,3.357-8.393,8.393-8.393h41.967
		c5.036,0,8.393,3.357,8.393,8.393c0,9.233,7.554,16.787,16.787,16.787s16.787-7.554,16.787-16.787c0-5.036,3.357-8.393,8.393-8.393
		h50.361c5.036,0,8.393,3.357,8.393,8.393c0,9.233,7.554,16.787,16.787,16.787s16.787-7.554,16.787-16.787
		c0-5.036,3.357-8.393,8.393-8.393h41.967c5.036,0,8.393,3.357,8.393,8.393c0,5.036,1.679,10.072,5.036,12.59
		c3.357,3.357,6.715,4.197,11.751,4.197c9.233-0.839,17.626-8.393,17.626-16.787c0-8.393-8.393-16.787-16.787-16.787H35.252z"/>
	<path d="M318.951,326.33H33.574c-5.036,0-8.393-3.357-8.393-8.393v-33.574c0-5.036,3.357-8.393,8.393-8.393h285.377
		c5.036,0,8.393,3.357,8.393,8.393v33.574C327.344,322.972,323.987,326.33,318.951,326.33z M41.967,309.543h268.59v-16.787H41.967
		V309.543z"/>
	<path d="M318.951,401.871H33.574c-5.036,0-8.393-3.357-8.393-8.393v-25.18c0-2.518,0.839-4.197,2.518-5.875
		c1.679-1.679,4.197-2.518,6.715-2.518c4.197,0,8.393-0.839,10.911-4.197c3.357-2.518,5.036-7.554,5.036-12.59
		c0-5.036,3.357-8.393,8.393-8.393h41.967c5.036,0,8.393,3.357,8.393,8.393c0,9.233,7.554,16.787,16.787,16.787
		s16.787-7.554,16.787-16.787c0-5.036,3.357-8.393,8.393-8.393h50.361c5.036,0,8.393,3.357,8.393,8.393
		c0,9.233,7.554,16.787,16.787,16.787s16.787-7.554,16.787-16.787c0-5.036,3.357-8.393,8.393-8.393h41.967
		c5.036,0,8.393,3.357,8.393,8.393c0,5.036,1.679,10.072,5.036,12.59c3.357,3.357,6.715,4.197,11.751,4.197
		c2.518,0,4.197,0.839,5.875,2.518c1.679,1.679,2.518,4.197,2.518,5.875v25.18C327.344,398.513,323.987,401.871,318.951,401.871z
		 M41.967,385.084h268.59v-9.233c-5.875-0.839-10.911-4.197-15.108-7.554c-5.036-4.197-7.554-10.072-9.233-16.787h-26.859
		c-3.357,14.269-16.787,25.18-32.734,25.18s-28.538-10.911-32.734-25.18h-36.092c-3.357,14.269-16.787,25.18-32.734,25.18
		s-28.538-10.911-32.734-25.18h-26.02c-1.679,6.715-5.036,12.59-9.233,16.787s-9.233,6.715-15.108,7.554V385.084z"/>
	<path d="M335.738,292.756H16.787C7.554,292.756,0,285.202,0,275.969v-8.393c0-55.397,70.505-92.328,176.262-92.328
		s176.262,36.931,176.262,92.328v8.393C352.525,285.202,344.97,292.756,335.738,292.756z M176.262,192.035
		c-94.007,0-159.475,31.056-159.475,75.541v8.393h318.951v-8.393C335.738,223.091,270.269,192.035,176.262,192.035z"/>
	<path d="M454.085,502.592H302.164c-5.036,0-8.393-3.357-8.393-8.393c0-5.036,3.357-8.393,8.393-8.393
		c5.036,0,8.393-3.357,8.393-8.393v-33.574c0-5.036,3.357-8.393,8.393-8.393h8.393c5.036,0,9.233-4.197,9.233-9.233v-15.948
		c0-5.036-4.197-9.233-9.233-9.233h-8.393c-5.036,0-8.393-3.357-8.393-8.393v-25.18c0-4.197,3.357-8.393,7.554-8.393
		c9.233-0.839,17.626-8.393,17.626-16.787c0-8.393-8.393-16.787-16.787-16.787c-5.036,0-8.393-3.357-8.393-8.393v-33.574
		c0-5.036,3.357-8.393,8.393-8.393h16.787v-8.393c0-30.216-31.056-55.397-83.095-67.148c-3.357-0.839-6.715-4.197-6.715-7.554
		l-2.518-50.361c0-2.518,0.839-4.197,2.518-5.875c1.679-1.679,4.197-2.518,5.875-2.518H486.82c2.518,0,4.197,0.839,5.875,2.518
		c1.679,1.679,2.518,4.197,2.518,5.875l-15.948,336.577C478.426,491.681,467.515,502.592,454.085,502.592z M325.666,485.805h128.42
		c4.197,0,8.393-3.357,8.393-8.393l15.948-327.344h-217.39l1.679,35.252c57.075,15.108,89.81,44.485,89.81,82.256v8.393
		c0,9.233-7.554,16.787-16.787,16.787h-8.393v17.626c14.269,4.197,25.18,17.626,25.18,32.734c0,15.108-10.911,28.538-25.18,31.895
		v10.072c14.269,0,25.18,11.751,25.18,26.02v15.948c0,14.269-10.911,25.18-25.18,26.02v25.18
		C327.344,480.769,326.505,483.287,325.666,485.805z"/>
	<path d="M369.311,359.904c-10.072,0-19.305-1.679-28.538-5.875c-3.357-1.679-5.875-5.036-5.036-9.233c0-0.839,0-1.679,0-1.679
		c0-8.393-8.393-16.787-16.787-16.787c-5.036,0-8.393-3.357-8.393-8.393v-33.574c0-5.036,3.357-8.393,8.393-8.393h16.787v-8.393
		c0-10.911-4.197-21.823-12.59-31.895c-1.679-1.679-2.518-4.197-1.679-6.715c0-2.518,1.679-4.197,3.357-5.875
		c13.429-10.072,28.538-15.108,45.325-15.108c41.967,0,75.541,33.574,75.541,75.541C444.852,326.33,411.279,359.904,369.311,359.904
		z M352.525,340.599c5.875,1.679,10.911,2.518,16.787,2.518c32.734,0,58.754-26.02,58.754-58.754s-26.02-58.754-58.754-58.754
		c-10.072,0-19.305,2.518-27.698,6.715c7.554,10.911,10.911,22.662,10.911,35.252v8.393c0,9.233-7.554,16.787-16.787,16.787h-8.393
		v17.626C340.774,314.579,351.685,326.33,352.525,340.599z"/>
</g>
<g>
</g>
<g>
</g>
<g>
</g>
<g>
</g>
<g>
</g>
<g>
</g>
<g>
</g>
<g>
</g>
<g>
</g>
<g>
</g>
<g>
</g>
<g>
</g>
<g>
</g>
<g>
</g>
<g>
</g>
</svg>
