<?xml version="1.0" encoding="iso-8859-1"?>
<!-- Generator: Adobe Illustrator 19.0.0, SVG Export Plug-In . SVG Version: 6.00 Build 0)  -->
<svg version="1.1" id="Layer_1" xmlns="http://www.w3.org/2000/svg" xmlns:xlink="http://www.w3.org/1999/xlink" x="0px" y="0px"
	 viewBox="0 0 512 512" style="enable-background:new 0 0 512 512;" xml:space="preserve">
<path style="fill:#333333;" d="M368,512H144c-17.6,0-32-14.4-32-32V32c0-17.6,14.4-32,32-32h224c17.6,0,32,14.4,32,32v448
	C400,497.6,385.6,512,368,512z"/>
<rect x="135.456" y="50.672" style="fill:#0BA4E0;" width="241.28" height="372"/>
<g>
	<path style="fill:#D6D6D6;" d="M256.176,489.44c-12.496,0-22.656-10.16-22.656-22.656s10.16-22.672,22.656-22.672
		s22.672,10.176,22.672,22.672S268.672,489.44,256.176,489.44z M256.176,452.112c-8.08,0-14.656,6.576-14.656,14.672
		c0,8.08,6.576,14.656,14.656,14.656c8.096,0,14.672-6.576,14.672-14.656C270.848,458.688,264.272,452.112,256.176,452.112z"/>
	<circle style="fill:#D6D6D6;" cx="256.16" cy="25.328" r="7.792"/>
	<circle style="fill:#D6D6D6;" cx="312.816" cy="25.328" r="7.792"/>
	<circle style="fill:#D6D6D6;" cx="337.44" cy="25.328" r="7.792"/>
</g>
<g>
</g>
<g>
</g>
<g>
</g>
<g>
</g>
<g>
</g>
<g>
</g>
<g>
</g>
<g>
</g>
<g>
</g>
<g>
</g>
<g>
</g>
<g>
</g>
<g>
</g>
<g>
</g>
<g>
</g>
</svg>
