<svg xmlns="http://www.w3.org/2000/svg" width="24.08" height="24.665" viewBox="0 0 24.08 24.665">
  <path id="confirm-password" d="M204.255,88.665H189.046c-2.446,0-4.436-1.49-4.436-3.32V76.082c0-1.831,1.99-3.32,4.436-3.32h14.1V69.814c0-2.683-2.916-4.866-6.5-4.866s-6.5,2.183-6.5,4.866v1.071c0,.262-.284.474-.634.474s-.634-.212-.634-.474V69.814c0-3.206,3.485-5.814,7.768-5.814s7.768,2.608,7.768,5.814v2.95c2.371.064,4.272,1.528,4.272,3.318v9.262C208.69,87.176,206.7,88.665,204.255,88.665ZM189.046,73.711c-1.747,0-3.168,1.064-3.168,2.372v9.262c0,1.308,1.421,2.372,3.168,2.372h15.209c1.747,0,3.168-1.064,3.168-2.372V76.082c0-1.308-1.421-2.372-3.168-2.372Zm7.6,12.221c-3.844,0-6.971-2.341-6.971-5.217s3.127-5.218,6.971-5.218,6.971,2.341,6.971,5.218S200.494,85.932,196.65,85.932Zm0-9.487c-3.145,0-5.7,1.915-5.7,4.269s2.559,4.269,5.7,4.269,5.7-1.915,5.7-4.269S199.8,76.445,196.65,76.445Zm-.923,6.275a.755.755,0,0,1-.448-.139L193.034,80.9a.4.4,0,0,1,0-.671.792.792,0,0,1,.9,0l1.8,1.346,3.644-2.728a.792.792,0,0,1,.9,0,.4.4,0,0,1,0,.671l-4.092,3.063A.756.756,0,0,1,195.727,82.72Z" transform="translate(-184.61 -64)" fill="#f2f2f4"/>
</svg>
