<svg xmlns="http://www.w3.org/2000/svg" width="42" height="42" viewBox="0 0 42 42">
  <g id="facebook-132" transform="translate(-63.414 -62.924)">
    <path id="Path_11" data-name="Path 11" d="M85.936,104.924H82.892A19.536,19.536,0,0,1,63.414,85.446V82.4A19.536,19.536,0,0,1,82.892,62.924h3.043A19.536,19.536,0,0,1,105.414,82.4v3.043A19.536,19.536,0,0,1,85.936,104.924Z" transform="translate(0 0)" fill="#3c599b"/>
    <path id="Path_12" data-name="Path 12" d="M402.538,301.378H398.66V289h-1.938v-4.266h1.938v-2.56c0-3.479,1.094-5.549,4.2-5.549h2.588v4.266h-1.617c-1.21,0-1.291.6-1.291,1.709l0,2.134h2.931L405.126,289h-2.588v12.376Z" transform="translate(-316.974 -205.119)" fill="#fff"/>
  </g>
</svg>
