<svg xmlns="http://www.w3.org/2000/svg" width="20.047" height="27.791" viewBox="0 0 20.047 27.791">
  <path id="password-76" d="M182.15,93.085a3.278,3.278,0,0,0-1.979-3.146,3.51,3.51,0,0,0-1.4-.164c-.21.011-.328.022-.3-.339a25.807,25.807,0,0,0,.034-2.665,6.52,6.52,0,0,0-4.455-6.142,5.608,5.608,0,0,0-6.379,2.906c-1.109,1.93-.962,4.053-.873,6.24-.325,0-.619-.008-.911,0a3.02,3.02,0,0,0-2.768,3.163q-.022,5.474,0,10.947a3.044,3.044,0,0,0,2.782,3.236q6.769.049,13.541,0a2.985,2.985,0,0,0,2.707-3.154q.018-5.44,0-10.881Zm-8.042,5.472a.787.787,0,0,0-.3.708c.017.8.012,1.6,0,2.4-.012.921-.473,1.476-1.2,1.462-.7-.011-1.14-.558-1.152-1.449-.007-.467-.012-.932,0-1.4a2.592,2.592,0,0,0-.648-2.154,2.518,2.518,0,0,1-.3-2.782,2.317,2.317,0,0,1,1.977-1.564,2.511,2.511,0,0,1,2.384,1.856A2.825,2.825,0,0,1,174.108,98.558Zm1.634-8.774c-1.02-.022-2.039-.008-3.059-.008-1.039,0-2.08-.024-3.119.011-.405.014-.485-.145-.47-.56.029-.711,0-1.424.01-2.135a3.555,3.555,0,1,1,7.061-.041c.014.757-.019,1.514.01,2.269C176.188,89.717,176.058,89.788,175.742,89.783Z" transform="translate(-162.608 -79.853)" fill="#f2f2f4" stroke="#707070" stroke-width="1"/>
</svg>
