<svg xmlns="http://www.w3.org/2000/svg" width="22.08" height="21.937" viewBox="0 0 22.08 21.937">
  <path id="telephone-64" d="M133.143,169.139c-1.6-.611-3.112-1.4-4.867.24a1.986,1.986,0,0,1-2.575.524c-.708-.376-5.068-4.828-5.664-6.284s-.274-1.653,0-2.095,2.172-1.473,1.03-4.713-2.04-5.68-6.694,0c-.483.589,0,3.142,0,3.142a26.014,26.014,0,0,0,14.417,15.187c1.729.692,5.632-.4,7.208-3.142C136.772,170.656,135.652,170.1,133.143,169.139Z" transform="translate(-114.16 -153.405)" fill="#f2f2f4"/>
</svg>
