<svg xmlns="http://www.w3.org/2000/svg" width="22.508" height="27.016" viewBox="0 0 22.508 27.016">
  <g id="verification-code-17" transform="translate(-90.449 -6.024)">
    <path id="Path_13" data-name="Path 13" d="M379.349,73.782h5.167a4.894,4.894,0,0,1,4.879,4.879v1.165a4.894,4.894,0,0,1-4.879,4.879h-5.167a4.894,4.894,0,0,1-4.879-4.879V78.662a4.894,4.894,0,0,1,4.879-4.879Zm-1.917,2.95v1.522h8.27V76.733Zm0,2.957v1.522h4.551V79.69Z" transform="translate(-276.438 -65.949)" fill="#f2f2f4"/>
    <path id="Path_14" data-name="Path 14" d="M514.285,429.8h4.594c.332,0,.853.385.6.6l-.244.213c-.25.218-.316.438-.6.6l-4.112,2.363c-.509.293-.841.1-.841-.466V430.4A.6.6,0,0,1,514.285,429.8Z" transform="translate(-411.935 -412.458)" fill="#f2f2f4"/>
    <path id="Path_15" data-name="Path 15" d="M94.157,6.024h4.9a9.083,9.083,0,0,0-1.8,3.785h-3.57a1.749,1.749,0,0,0-1.743,1.743V24.841a1.749,1.749,0,0,0,1.743,1.743h13a1.749,1.749,0,0,0,1.743-1.743V20.565a9.083,9.083,0,0,0,1.493-.524v9.291a3.719,3.719,0,0,1-3.708,3.708H94.157a3.719,3.719,0,0,1-3.708-3.708V9.732a3.719,3.719,0,0,1,3.708-3.708Zm6.03,21.8a1.567,1.567,0,1,0,1.567,1.567A1.567,1.567,0,0,0,100.187,27.819Z" fill="#f2f2f4"/>
  </g>
</svg>
