<svg id="Layer_1" data-name="Layer 1" xmlns="http://www.w3.org/2000/svg" viewBox="0 0 232.79 315"><defs><style>.cls-1{fill:#fff;}</style></defs><title>location</title><path class="cls-1" d="M157.5,0A116.54,116.54,0,0,0,41.1,116.4c0,62.14,106.12,190.46,110.63,195.89a7.5,7.5,0,0,0,11.54,0c4.52-5.43,110.63-133.76,110.63-195.89A116.54,116.54,0,0,0,157.5,0Zm0,295.6c-9.41-11.75-29-36.78-48.3-65.4-34.74-51.38-53.1-90.73-53.1-113.8a101.4,101.4,0,1,1,202.8,0c0,23.07-18.36,62.42-53.1,113.8C186.46,258.82,166.91,283.85,157.5,295.6Z" transform="translate(-41.1)"/><path class="cls-1" d="M195.66,214a7.51,7.51,0,0,0-10.42,2c-10.12,15-21.45,30.69-33.7,46.67a7.5,7.5,0,0,0,11.91,9.12c12.42-16.22,23.94-32.16,34.22-47.39A7.49,7.49,0,0,0,195.66,214Z" transform="translate(-41.1)"/><path class="cls-1" d="M157.5,57.5A61.5,61.5,0,1,0,219,119,61.57,61.57,0,0,0,157.5,57.5Zm0,108A46.5,46.5,0,1,1,204,119,46.55,46.55,0,0,1,157.5,165.5Z" transform="translate(-41.1)"/></svg>