<svg id="Capa_1" data-name="Capa 1" xmlns="http://www.w3.org/2000/svg" viewBox="0 0 384.97 384.97"><defs><style>.cls-1{fill:#fff;}</style></defs><g id="Arrow_Left_Circle" data-name="Arrow Left Circle"><path class="cls-1" d="M192.49,0C86.18,0,0,86.18,0,192.49S86.18,385,192.49,385,385,298.8,385,192.49,298.8,0,192.49,0Zm0,360.91A168.43,168.43,0,1,1,360.91,192.49,168.43,168.43,0,0,1,192.49,360.91Z"/><path class="cls-1" d="M300.76,180.23H113.17l62.56-63.46a12.25,12.25,0,0,0,0-17.18,12,12,0,0,0-17,0l-83,84.2a12.27,12.27,0,0,0-3.54,8.59A12.42,12.42,0,0,0,75.71,201l83,84.2a11.94,11.94,0,0,0,17,0,12.22,12.22,0,0,0,0-17.19l-62.55-63.46h187.6a12.15,12.15,0,0,0,0-24.29Z"/></g></svg>