<?xml version="1.0" encoding="utf-8"?>
<!-- Generator: Adobe Illustrator 24.2.1, SVG Export Plug-In . SVG Version: 6.00 Build 0)  -->
<svg version="1.1" id="Capa_1" xmlns="http://www.w3.org/2000/svg" xmlns:xlink="http://www.w3.org/1999/xlink" x="0px" y="0px"
	 viewBox="0 0 396.7 396.7" style="enable-background:new 0 0 396.7 396.7;" xml:space="preserve">
<style type="text/css">
	.st0{fill:#535660;}
</style>
<g>
	<path class="st0" d="M267.5,61.8c0-34.1-27.7-61.8-61.8-61.8h-14.6c-34.1,0-61.8,27.7-61.8,61.8v13.8h138.3L267.5,61.8L267.5,61.8z
		"/>
	<path class="st0" d="M305.8,106.1c-11.6,0-21,9.4-21,21v67.1c0,37.7-28.5,69.5-65.5,74v-23.8c28.1-6.3,48.1-31.2,48.1-60.3V94.4
		H129.2V184c0,29.1,20.1,54,48.1,60.3v23.8c-37-4.5-65.5-36.3-65.5-74v-67.1c0-11.6-9.4-21-21-21c-11.6,0-21,9.4-21,21v67.1
		c0,30.1,11.5,58.7,32.3,80.5c20,20.9,46.6,33.5,75.2,35.7v44.4h-44.6c-11.6,0-21,9.4-21,21s9.4,21,21,21H264c11.6,0,21-9.4,21-21
		s-9.4-21-21-21h-44.6v-44.4c28.6-2.2,55.2-14.8,75.2-35.7c20.8-21.8,32.3-50.4,32.3-80.5v-67.1
		C326.8,115.5,317.4,106.1,305.8,106.1z"/>
</g>
</svg>
