<?xml version="1.0" encoding="iso-8859-1"?>
<!-- Generator: Adobe Illustrator 18.0.0, SVG Export Plug-In . SVG Version: 6.00 Build 0)  -->
<!DOCTYPE svg PUBLIC "-//W3C//DTD SVG 1.1//EN" "http://www.w3.org/Graphics/SVG/1.1/DTD/svg11.dtd">
<svg version="1.1" id="Capa_1" xmlns="http://www.w3.org/2000/svg" xmlns:xlink="http://www.w3.org/1999/xlink" x="0px" y="0px"
	 viewBox="0 0 396.678 396.678" style="enable-background:new 0 0 396.678 396.678;" xml:space="preserve">
<g>
	<path d="M267.468,61.843C267.468,27.742,239.727,0,205.628,0H191.05c-34.099,0-61.84,27.742-61.84,61.843v13.842h138.259V61.843z"
		/>
	<path d="M305.836,106.054c-11.581,0-21.002,9.422-21.002,21.002v67.058c0,37.677-28.475,69.472-65.492,73.983v-23.781
		c28.061-6.331,48.127-31.226,48.127-60.298V94.353H129.209v89.665c0,29.072,20.065,53.967,48.126,60.298v23.781
		c-37.017-4.512-65.492-36.307-65.492-73.983v-67.058c0-11.58-9.422-21.002-21.003-21.002c-11.58,0-21.002,9.422-21.002,21.002
		v67.058c0,30.086,11.473,58.663,32.305,80.466c19.989,20.92,46.58,33.534,75.192,35.742v44.351h-44.626
		c-11.582,0-21.003,9.422-21.003,21.003c0,11.581,9.421,21.003,21.003,21.003h131.259c11.58,0,21.002-9.422,21.002-21.003
		c0-11.581-9.422-21.003-21.002-21.003h-44.627v-44.351c28.612-2.208,55.203-14.822,75.192-35.742
		c20.832-21.803,32.305-50.38,32.305-80.466v-67.058C326.839,115.476,317.417,106.054,305.836,106.054z"/>
</g>
<g>
</g>
<g>
</g>
<g>
</g>
<g>
</g>
<g>
</g>
<g>
</g>
<g>
</g>
<g>
</g>
<g>
</g>
<g>
</g>
<g>
</g>
<g>
</g>
<g>
</g>
<g>
</g>
<g>
</g>
</svg>
