<svg id="Layer_1" data-name="Layer 1" xmlns="http://www.w3.org/2000/svg" viewBox="0 0 479.96 415.99"><defs><style>.cls-1{fill:#535660;}</style></defs><path class="cls-1" d="M476.59,227.05l-.16-.07L49.35,49.84A23.58,23.58,0,0,0,27.14,52,24.66,24.66,0,0,0,16,72.59V185.88a24,24,0,0,0,19.52,23.57l232.93,43.07a4,4,0,0,1,0,7.86L35.53,303.45A24,24,0,0,0,16,327V440.31A23.55,23.55,0,0,0,26.59,460a24,24,0,0,0,13.22,4,24.51,24.51,0,0,0,9.52-1.93L476.4,285.94l.19-.09a32,32,0,0,0,0-58.8Z" transform="translate(-16 -48.01)"/></svg>