<svg id="Layer_1" data-name="Layer 1" xmlns="http://www.w3.org/2000/svg" viewBox="0 0 22 22"><defs><style>.cls-1{fill:#fff;fill-rule:evenodd;}</style></defs><path class="cls-1" d="M16,9a4,4,0,1,1-4-4A4,4,0,0,1,16,9ZM14,9a2,2,0,1,1-2-2A2,2,0,0,1,14,9Z" transform="translate(-1 -1)"/><path class="cls-1" d="M12,1A11,11,0,1,0,23,12,11,11,0,0,0,12,1ZM3,12a8.94,8.94,0,0,0,1.91,5.54,9,9,0,0,1,14.25-.08A9,9,0,1,0,3,12Zm9,9a9,9,0,0,1-5.67-2,7,7,0,0,1,11.42-.07A8.94,8.94,0,0,1,12,21Z" transform="translate(-1 -1)"/></svg>