<svg id="Layer_1" data-name="Layer 1" xmlns="http://www.w3.org/2000/svg" viewBox="0 0 409.37 512"><defs><style>.cls-1{fill:#fff;}</style></defs><path class="cls-1" d="M396.42,224h0A140.47,140.47,0,0,0,292.66,88.43V35.7a35.7,35.7,0,0,0-71.4,0V87.92A140.48,140.48,0,0,0,115.58,224h0c0,17.43-4.61,42.71-10.42,68.12H406.87C401.05,266.67,396.42,241.35,396.42,224Z" transform="translate(-51.31)"/><path class="cls-1" d="M429.4,380.47c-2-9.37-8-30.34-14.3-54.73H96.93c-6.31,24.4-12.28,45.36-14.33,54.73A34.72,34.72,0,0,0,51.31,415v4.35A34.71,34.71,0,0,0,86,454.08H198.08a57.92,57.92,0,1,0,115.83,0H426a34.72,34.72,0,0,0,34.72-34.71V415A34.72,34.72,0,0,0,429.4,380.47Z" transform="translate(-51.31)"/></svg>