<svg id="Capa_1" data-name="Capa 1" xmlns="http://www.w3.org/2000/svg" viewBox="0 0 26.39 23.38"><defs><style>.cls-1{fill:#fff;}</style></defs><g id="c14_house" data-name="c14 house"><path class="cls-1" d="M3.59,24.3a.54.54,0,0,0,.55.59h6.65V19.43s-.09-.9.78-.9h2.76a.86.86,0,0,1,1,.9v5.43h6.51a.68.68,0,0,0,.7-.73v-10L13.33,5.91,3.59,14.08Z" transform="translate(0 -1.5)"/><path class="cls-1" d="M0,13.32s.83,1.52,2.63,0L13.41,4.2l10.11,9.06c2.09,1.51,2.87,0,2.87,0L13.41,1.5Z" transform="translate(0 -1.5)"/><polygon class="cls-1" points="23.27 2.67 20.67 2.67 20.68 5.82 23.27 8.02 23.27 2.67"/></g></svg>