<svg id="Layer_1" data-name="Layer 1" xmlns="http://www.w3.org/2000/svg" viewBox="0 0 461.3 449.74"><defs><style>.cls-1{fill:#fff;}</style></defs><path class="cls-1" d="M365.76,229.83a75.39,75.39,0,0,1-90.07,0,75.39,75.39,0,0,1-90.07,0,75.4,75.4,0,0,1-90.08,0,75.33,75.33,0,0,1-81.42,5.55V445.43a10.09,10.09,0,0,0,10.09,10.09H183.3V299.31a10.09,10.09,0,0,1,10.09-10.09h74.52A10.09,10.09,0,0,1,278,299.31V455.52H437.1a10.09,10.09,0,0,0,10.09-10.09v-210a75.35,75.35,0,0,1-81.43-5.55ZM46,310.14a14.45,14.45,0,0,1,14.45-14.45h73.69a14.45,14.45,0,0,1,14.45,14.45v8.95H46ZM148.6,394.68h0a14.45,14.45,0,0,1-14.45,14.45H60.46A14.45,14.45,0,0,1,46,394.68V349H148.6v45.7Zm266.49,0a14.45,14.45,0,0,1-14.45,14.45H327a14.45,14.45,0,0,1-14.45-14.45V349H415.09Zm0-84.54v8.95H312.5v-8.95A14.45,14.45,0,0,1,327,295.69h73.69A14.45,14.45,0,0,1,415.09,310.14Z" transform="translate(0 -5.78)"/><path class="cls-1" d="M50.5,219.86a50.49,50.49,0,0,0,45-27.66,50.5,50.5,0,0,0,90.08,0,50.49,50.49,0,0,0,90.07,0,50.49,50.49,0,0,0,90.07,0,50.5,50.5,0,0,0,95.54-22.85c0-9.16-37.56-140.63-37.56-140.63A30.92,30.92,0,0,0,393.87,5.78H68.4A30.92,30.92,0,0,0,38.58,28.53C37,34.46,0,160,0,169.35A50.5,50.5,0,0,0,50.5,219.86Z" transform="translate(0 -5.78)"/></svg>