<svg id="Layer_1" data-name="Layer 1" xmlns="http://www.w3.org/2000/svg" viewBox="0 0 297.89 297.89"><defs><style>.cls-1{fill:#5c6670;}.cls-2{fill:#fff;}</style></defs><path class="cls-1" d="M231.36,196.62A22.17,22.17,0,1,1,200,228l-50.09-50.09a22.17,22.17,0,1,1,31.35-31.36Z"/><path class="cls-2" d="M100.7,0A100.7,100.7,0,1,0,201.39,100.7,100.69,100.69,0,0,0,100.7,0Zm-2,165.49a62.75,62.75,0,1,1,62.74-62.74A62.75,62.75,0,0,1,98.65,165.49Z"/><path class="cls-2" d="M186.27,233.5a33.4,33.4,0,1,1,47.24-47.23l54.6,54.6a33.4,33.4,0,0,1-47.24,47.23Z"/></svg>